<svg viewBox="0 0 1200 630" xmlns="http://www.w3.org/2000/svg">
  <defs>
    <linearGradient id="bgGrad2" x1="0" y1="0" x2="1" y2="1">
      <stop offset="0%" stop-color="#0d1116"/>
      <stop offset="100%" stop-color="#05070a"/>
    </linearGradient>
    <filter id="glow2" x="-50%" y="-50%" width="200%" height="200%">
      <feGaussianBlur stdDeviation="5" result="blur"/>
      <feMerge>
        <feMergeNode in="blur"/>
        <feMergeNode in="SourceGraphic"/>
      </feMerge>
    </filter>
  </defs>

  <rect width="1200" height="630" fill="url(#bgGrad2)"/>

  <!-- soft mountain silhouette, Calamuchita vibe -->
  <path d="M0,430 L120,360 L230,410 L340,320 L430,400 L560,300 L700,400 L820,340 L940,420 L1060,350 L1200,410 L1200,630 L0,630 Z"
        fill="#0b0f13" stroke="none" opacity="0.9"/>
  <path d="M0,470 L150,420 L300,460 L470,400 L620,455 L800,405 L960,460 L1200,430 L1200,630 L0,630 Z"
        fill="#05070a" opacity="0.9"/>

  <!-- phone mockup -->
  <rect x="120" y="110" width="290" height="420" rx="26" fill="#0d1116" stroke="rgba(237,238,240,0.14)" stroke-width="2"/>
  <rect x="140" y="150" width="250" height="340" rx="4" fill="#05070a"/>

  <!-- menu header -->
  <text x="160" y="185" font-family="'Inter', sans-serif" font-size="20" font-weight="700" fill="#c9a15c">El Jabalí Blanco</text>
  <line x1="160" y1="198" x2="370" y2="198" stroke="rgba(201,161,92,0.3)"/>

  <!-- menu items -->
  <g fill="#d7d9dc" font-family="'Inter', sans-serif" font-size="13">
    <text x="160" y="230">Picada de la casa</text>
    <text x="340" y="230" fill="#939ba5">$</text>
    <text x="160" y="255">Cerveza artesanal IPA</text>
    <text x="340" y="255" fill="#939ba5">$</text>
    <text x="160" y="280">Milanesa napolitana</text>
    <text x="340" y="280" fill="#939ba5">$</text>
    <text x="160" y="305">Fernet con cola</text>
    <text x="340" y="305" fill="#939ba5">$</text>
    <text x="160" y="330">Tabla de fiambres</text>
    <text x="340" y="330" fill="#939ba5">$</text>
  </g>
  <line x1="160" y1="345" x2="370" y2="345" stroke="rgba(237,238,240,0.08)"/>
  <g fill="#d7d9dc" font-family="'Inter', sans-serif" font-size="13" opacity="0.7">
    <text x="160" y="370">Postre casero</text>
    <text x="340" y="370" fill="#939ba5">$</text>
    <text x="160" y="395">Café de olla</text>
    <text x="340" y="395" fill="#939ba5">$</text>
  </g>

  <!-- small pong easter egg hint at bottom of screen -->
  <rect x="160" y="450" width="210" height="26" rx="3" fill="#0b0f13" stroke="rgba(63,167,160,0.3)"/>
  <rect x="168" y="460" width="4" height="10" fill="#3fa7a0"/>
  <circle cx="260" cy="463" r="3" fill="#3fa7a0"/>
  <rect x="358" y="458" width="4" height="10" fill="#3fa7a0"/>

  <!-- QR code stylized -->
  <g transform="translate(560,180)">
    <rect x="0" y="0" width="200" height="200" rx="6" fill="#0b0f13" stroke="rgba(237,238,240,0.1)"/>
    <g fill="#edeef0">
      <rect x="20" y="20" width="40" height="40"/>
      <rect x="30" y="30" width="20" height="20" fill="#0b0f13"/>
      <rect x="140" y="20" width="40" height="40"/>
      <rect x="150" y="30" width="20" height="20" fill="#0b0f13"/>
      <rect x="20" y="140" width="40" height="40"/>
      <rect x="30" y="150" width="20" height="20" fill="#0b0f13"/>
      <rect x="80" y="20" width="12" height="12"/>
      <rect x="100" y="40" width="12" height="12"/>
      <rect x="80" y="60" width="12" height="12"/>
      <rect x="110" y="80" width="12" height="12"/>
      <rect x="130" y="100" width="12" height="12"/>
      <rect x="150" y="80" width="12" height="12"/>
      <rect x="80" y="100" width="12" height="12"/>
      <rect x="100" y="120" width="12" height="12"/>
      <rect x="140" y="140" width="12" height="12"/>
      <rect x="160" y="160" width="12" height="12"/>
      <rect x="100" y="160" width="12" height="12"/>
      <rect x="80" y="150" width="12" height="12"/>
    </g>
  </g>

  <text x="560" y="415" font-family="'JetBrains Mono', monospace" font-size="14" letter-spacing="2" fill="#939ba5">MENÚ DIGITAL · PHP + JSON · RESELLABLE</text>
  <text x="560" y="440" font-family="'JetBrains Mono', monospace" font-size="13" letter-spacing="1.5" fill="#c9a15c" filter="url(#glow2)">VILLA GENERAL BELGRANO</text>
</svg>
